<?xml version="1.0" standalone="no"?><!DOCTYPE svg PUBLIC "-//W3C//DTD SVG 1.1//EN" "http://www.w3.org/Graphics/SVG/1.1/DTD/svg11.dtd"><svg class="icon" height="512" viewBox="0 0 1024 1024" version="1.1" xmlns="http://www.w3.org/2000/svg"><path d="M509.87008 509.85472m-484.25984 0a484.25984 484.25984 0 1 0 968.51968 0 484.25984 484.25984 0 1 0-968.51968 0Z" fill="#F2F2F2" /><path d="M863.18592 640.16384c-38.272 0-71.13216-15.01184-86.52288-36.62336h-2.29376c-15.39072 21.61152-48.25088 36.62336-86.52288 36.62336s-71.13216-15.01184-86.52288-36.62336h-2.29376c-15.39072 21.61152-48.25088 36.62336-86.52288 36.62336-38.272 0-71.13216-15.01184-86.52288-36.62336h-2.29376c-15.39072 21.61152-48.25088 36.62336-86.52288 36.62336-38.272 0-71.13216-15.01184-86.52288-36.62336h-2.29376c-15.39072 21.61152-48.25088 36.62336-86.52288 36.62336-34.1248 0-64.01536-11.91424-81.01888-29.80864 42.41408 198.39488 218.56768 347.22304 429.62432 347.22304 209.28512 0 384.24576-146.33984 428.52864-342.23616-17.56672 15.0784-44.93312 24.82176-75.776 24.82176z" fill="#66ABC4" /><path d="M284.06784 253.02528c-124.70784 124.70784-124.70784 326.90176 0 451.6096s326.90176 124.70784 451.6096 0 124.70784-326.90176 0-451.6096-326.90176-124.70784-451.6096 0z m338.176 338.18112c-62.05952 62.05952-162.68288 62.05952-224.74752 0-62.06464-62.06464-62.05952-162.68288 0-224.74752s162.68288-62.06464 224.74752 0c62.06464 62.05952 62.06464 162.68288 0 224.74752z" fill="#FFFFFF" /><path d="M594.0992 344.192l114.93888-114.93888c-116.17792-92.93824-282.14784-92.93824-398.32576 0l114.93376 114.93888c51.38432-32.19968 117.06368-32.19968 168.45312 0zM375.23456 394.60352L260.29568 279.66976c-92.93824 116.17792-92.93824 282.14784 0 398.32576l114.93888-114.93888c-32.19968-51.38432-32.19968-117.06368 0-168.45312zM759.4496 279.67488l-114.93888 114.93376c32.19968 51.38432 32.19968 117.06368 0 168.45312l114.93888 114.93888c92.93824-116.17792 92.93824-282.14784 0-398.32576zM425.64608 613.47328l-114.93888 114.93888c116.17792 92.93824 282.14784 92.93824 398.32576 0l-114.93376-114.93888c-51.38432 32.19968-117.06368 32.19968-168.45312 0z" fill="#CC3333" /></svg>